<svg xmlns="http://www.w3.org/2000/svg" xmlns:xlink="http://www.w3.org/1999/xlink" version="1.1" class="si-glyph si-glyph-document-bullet-list" viewBox="2.04 0 11.96 16">    <g stroke="none" stroke-width="1" fill="none" fill-rule="evenodd">        <g transform="translate(2.000000, 0.000000)" fill="#434343">            <path fill="#19C5A3" d="M8.031,0.031 L8.031,3.969 L11.902,3.969 L8.031,0.031 Z" class="si-glyph-fill">            </path>            <path fill="#19C5A3" d="M7,5 L7,0 L0.042,0 L0.042,16 L12,16 L12,5 L7,5 Z M3,8 L2,8 L2,7 L3,7 L3,8 L3,8 Z M3,10 L2,10 L2,9 L3,9 L3,10 L3,10 Z M2.938,12 L1.938,12 L1.938,11 L2.938,11 L2.938,12 L2.938,12 Z M3.958,12 L3.958,11 L8.958,11 L8.958,12 L3.958,12 Z M8.958,10 L3.958,10 L3.958,9 L8.958,9 L8.958,10 L8.958,10 Z M8.958,8 L3.958,8 L3.958,7 L8.958,7 L8.958,8 L8.958,8 Z" class="si-glyph-fill">            </path>        </g>    </g></svg>